<svg xmlns="http://www.w3.org/2000/svg" viewBox="0 0 57 57" shape-rendering="crispEdges" width="1140" height="1140">
<rect x="0" y="0" width="57" height="57" fill="#FFF"/>
<path fill="#000" d="M4 4h7v1h-7zM12 4h1v1h-1zM14 4h1v1h-1zM17 4h4v1h-4zM23 4h1v1h-1zM27 4h1v1h-1zM30 4h2v1h-2zM34 4h2v1h-2zM39 4h1v1h-1zM44 4h1v1h-1zM46 4h7v1h-7zM4 5h1v1h-1zM10 5h1v1h-1zM13 5h3v1h-3zM17 5h2v1h-2zM20 5h2v1h-2zM23 5h1v1h-1zM25 5h4v1h-4zM30 5h1v1h-1zM32 5h1v1h-1zM35 5h2v1h-2zM38 5h2v1h-2zM41 5h4v1h-4zM46 5h1v1h-1zM52 5h1v1h-1zM4 6h1v1h-1zM6 6h3v1h-3zM10 6h1v1h-1zM13 6h1v1h-1zM18 6h1v1h-1zM22 6h1v1h-1zM24 6h3v1h-3zM28 6h2v1h-2zM33 6h2v1h-2zM36 6h4v1h-4zM43 6h2v1h-2zM46 6h1v1h-1zM48 6h3v1h-3zM52 6h1v1h-1zM4 7h1v1h-1zM6 7h3v1h-3zM10 7h1v1h-1zM14 7h1v1h-1zM18 7h1v1h-1zM20 7h2v1h-2zM23 7h1v1h-1zM27 7h1v1h-1zM31 7h1v1h-1zM35 7h1v1h-1zM39 7h2v1h-2zM43 7h1v1h-1zM46 7h1v1h-1zM48 7h3v1h-3zM52 7h1v1h-1zM4 8h1v1h-1zM6 8h3v1h-3zM10 8h1v1h-1zM12 8h1v1h-1zM16 8h2v1h-2zM19 8h5v1h-5zM25 8h6v1h-6zM32 8h1v1h-1zM34 8h2v1h-2zM37 8h1v1h-1zM39 8h1v1h-1zM41 8h1v1h-1zM46 8h1v1h-1zM48 8h3v1h-3zM52 8h1v1h-1zM4 9h1v1h-1zM10 9h1v1h-1zM12 9h2v1h-2zM15 9h1v1h-1zM17 9h1v1h-1zM20 9h3v1h-3zM24 9h1v1h-1zM26 9h1v1h-1zM30 9h4v1h-4zM36 9h1v1h-1zM38 9h5v1h-5zM46 9h1v1h-1zM52 9h1v1h-1zM4 10h7v1h-7zM12 10h1v1h-1zM14 10h1v1h-1zM16 10h1v1h-1zM18 10h1v1h-1zM20 10h1v1h-1zM22 10h1v1h-1zM24 10h1v1h-1zM26 10h1v1h-1zM28 10h1v1h-1zM30 10h1v1h-1zM32 10h1v1h-1zM34 10h1v1h-1zM36 10h1v1h-1zM38 10h1v1h-1zM40 10h1v1h-1zM42 10h1v1h-1zM44 10h1v1h-1zM46 10h7v1h-7zM13 11h1v1h-1zM15 11h3v1h-3zM26 11h1v1h-1zM30 11h1v1h-1zM32 11h1v1h-1zM34 11h1v1h-1zM40 11h1v1h-1zM43 11h1v1h-1zM5 12h7v1h-7zM13 12h2v1h-2zM16 12h2v1h-2zM20 12h3v1h-3zM24 12h1v1h-1zM26 12h5v1h-5zM33 12h5v1h-5zM39 12h1v1h-1zM41 12h4v1h-4zM47 12h2v1h-2zM52 12h1v1h-1zM4 13h2v1h-2zM9 13h1v1h-1zM13 13h3v1h-3zM17 13h1v1h-1zM19 13h2v1h-2zM22 13h2v1h-2zM25 13h1v1h-1zM27 13h1v1h-1zM29 13h1v1h-1zM32 13h3v1h-3zM36 13h2v1h-2zM45 13h3v1h-3zM4 14h1v1h-1zM8 14h5v1h-5zM18 14h1v1h-1zM20 14h1v1h-1zM24 14h2v1h-2zM29 14h1v1h-1zM32 14h2v1h-2zM35 14h5v1h-5zM42 14h1v1h-1zM47 14h1v1h-1zM50 14h3v1h-3zM4 15h3v1h-3zM14 15h1v1h-1zM17 15h2v1h-2zM21 15h1v1h-1zM23 15h2v1h-2zM27 15h1v1h-1zM30 15h3v1h-3zM35 15h3v1h-3zM39 15h1v1h-1zM41 15h9v1h-9zM6 16h2v1h-2zM10 16h2v1h-2zM13 16h2v1h-2zM16 16h2v1h-2zM19 16h3v1h-3zM24 16h2v1h-2zM29 16h1v1h-1zM31 16h2v1h-2zM34 16h1v1h-1zM38 16h1v1h-1zM40 16h2v1h-2zM43 16h4v1h-4zM50 16h1v1h-1zM52 16h1v1h-1zM4 17h1v1h-1zM8 17h1v1h-1zM11 17h1v1h-1zM13 17h1v1h-1zM15 17h1v1h-1zM18 17h1v1h-1zM20 17h1v1h-1zM22 17h3v1h-3zM27 17h1v1h-1zM29 17h1v1h-1zM31 17h1v1h-1zM34 17h2v1h-2zM37 17h1v1h-1zM39 17h2v1h-2zM43 17h1v1h-1zM45 17h2v1h-2zM48 17h1v1h-1zM51 17h1v1h-1zM4 18h2v1h-2zM7 18h2v1h-2zM10 18h1v1h-1zM18 18h1v1h-1zM23 18h2v1h-2zM27 18h1v1h-1zM29 18h1v1h-1zM32 18h2v1h-2zM35 18h1v1h-1zM38 18h1v1h-1zM41 18h4v1h-4zM49 18h1v1h-1zM52 18h1v1h-1zM4 19h1v1h-1zM6 19h2v1h-2zM11 19h1v1h-1zM13 19h1v1h-1zM16 19h2v1h-2zM19 19h4v1h-4zM24 19h1v1h-1zM27 19h2v1h-2zM30 19h1v1h-1zM34 19h1v1h-1zM36 19h2v1h-2zM43 19h4v1h-4zM48 19h2v1h-2zM51 19h2v1h-2zM4 20h1v1h-1zM10 20h2v1h-2zM13 20h1v1h-1zM16 20h1v1h-1zM19 20h1v1h-1zM22 20h2v1h-2zM26 20h1v1h-1zM28 20h1v1h-1zM30 20h1v1h-1zM32 20h4v1h-4zM39 20h4v1h-4zM44 20h3v1h-3zM50 20h1v1h-1zM7 21h1v1h-1zM9 21h1v1h-1zM11 21h3v1h-3zM15 21h1v1h-1zM17 21h1v1h-1zM20 21h1v1h-1zM23 21h1v1h-1zM29 21h2v1h-2zM34 21h1v1h-1zM37 21h1v1h-1zM43 21h1v1h-1zM46 21h2v1h-2zM49 21h2v1h-2zM5 22h2v1h-2zM10 22h2v1h-2zM14 22h1v1h-1zM17 22h1v1h-1zM20 22h1v1h-1zM22 22h1v1h-1zM25 22h1v1h-1zM28 22h7v1h-7zM36 22h1v1h-1zM39 22h1v1h-1zM43 22h1v1h-1zM45 22h1v1h-1zM47 22h3v1h-3zM51 22h2v1h-2zM4 23h2v1h-2zM7 23h1v1h-1zM13 23h1v1h-1zM22 23h3v1h-3zM26 23h4v1h-4zM31 23h1v1h-1zM33 23h4v1h-4zM39 23h1v1h-1zM41 23h4v1h-4zM46 23h3v1h-3zM4 24h4v1h-4zM10 24h2v1h-2zM15 24h1v1h-1zM17 24h1v1h-1zM20 24h1v1h-1zM24 24h1v1h-1zM27 24h1v1h-1zM30 24h4v1h-4zM38 24h1v1h-1zM40 24h3v1h-3zM44 24h1v1h-1zM46 24h2v1h-2zM50 24h2v1h-2zM6 25h1v1h-1zM12 25h3v1h-3zM16 25h2v1h-2zM19 25h2v1h-2zM25 25h1v1h-1zM27 25h3v1h-3zM31 25h1v1h-1zM33 25h3v1h-3zM37 25h1v1h-1zM40 25h1v1h-1zM43 25h1v1h-1zM45 25h2v1h-2zM49 25h1v1h-1zM4 26h2v1h-2zM7 26h6v1h-6zM15 26h1v1h-1zM17 26h1v1h-1zM21 26h1v1h-1zM25 26h7v1h-7zM35 26h1v1h-1zM37 26h2v1h-2zM40 26h1v1h-1zM42 26h7v1h-7zM50 26h3v1h-3zM4 27h3v1h-3zM8 27h1v1h-1zM12 27h1v1h-1zM14 27h3v1h-3zM19 27h5v1h-5zM26 27h1v1h-1zM30 27h2v1h-2zM33 27h1v1h-1zM36 27h1v1h-1zM41 27h4v1h-4zM48 27h1v1h-1zM51 27h2v1h-2zM6 28h3v1h-3zM10 28h1v1h-1zM12 28h3v1h-3zM18 28h2v1h-2zM21 28h1v1h-1zM23 28h2v1h-2zM26 28h1v1h-1zM28 28h1v1h-1zM30 28h1v1h-1zM32 28h2v1h-2zM35 28h1v1h-1zM37 28h1v1h-1zM40 28h1v1h-1zM44 28h1v1h-1zM46 28h1v1h-1zM48 28h3v1h-3zM52 28h1v1h-1zM5 29h2v1h-2zM8 29h1v1h-1zM12 29h1v1h-1zM17 29h6v1h-6zM25 29h2v1h-2zM30 29h3v1h-3zM34 29h2v1h-2zM39 29h1v1h-1zM41 29h1v1h-1zM43 29h2v1h-2zM48 29h2v1h-2zM51 29h1v1h-1zM4 30h3v1h-3zM8 30h5v1h-5zM14 30h4v1h-4zM20 30h1v1h-1zM23 30h8v1h-8zM32 30h2v1h-2zM37 30h2v1h-2zM40 30h1v1h-1zM42 30h1v1h-1zM44 30h5v1h-5zM50 30h1v1h-1zM52 30h1v1h-1zM8 31h1v1h-1zM11 31h1v1h-1zM13 31h2v1h-2zM16 31h4v1h-4zM24 31h2v1h-2zM29 31h1v1h-1zM32 31h3v1h-3zM36 31h2v1h-2zM39 31h1v1h-1zM41 31h1v1h-1zM44 31h2v1h-2zM47 31h1v1h-1zM49 31h1v1h-1zM51 31h2v1h-2zM4 32h1v1h-1zM8 32h1v1h-1zM10 32h3v1h-3zM16 32h2v1h-2zM19 32h3v1h-3zM23 32h9v1h-9zM35 32h1v1h-1zM37 32h1v1h-1zM39 32h2v1h-2zM42 32h2v1h-2zM45 32h1v1h-1zM47 32h2v1h-2zM50 32h1v1h-1zM52 32h1v1h-1zM7 33h1v1h-1zM9 33h1v1h-1zM11 33h3v1h-3zM16 33h3v1h-3zM21 33h2v1h-2zM25 33h2v1h-2zM29 33h1v1h-1zM34 33h1v1h-1zM36 33h2v1h-2zM39 33h1v1h-1zM43 33h3v1h-3zM4 34h5v1h-5zM10 34h3v1h-3zM15 34h1v1h-1zM19 34h2v1h-2zM22 34h1v1h-1zM28 34h2v1h-2zM31 34h3v1h-3zM35 34h1v1h-1zM38 34h10v1h-10zM51 34h2v1h-2zM7 35h3v1h-3zM12 35h1v1h-1zM14 35h1v1h-1zM18 35h5v1h-5zM26 35h1v1h-1zM29 35h1v1h-1zM34 35h2v1h-2zM38 35h5v1h-5zM6 36h1v1h-1zM8 36h1v1h-1zM10 36h5v1h-5zM16 36h2v1h-2zM20 36h2v1h-2zM26 36h3v1h-3zM30 36h2v1h-2zM40 36h2v1h-2zM43 36h1v1h-1zM45 36h7v1h-7zM4 37h1v1h-1zM8 37h1v1h-1zM11 37h1v1h-1zM13 37h2v1h-2zM16 37h3v1h-3zM25 37h2v1h-2zM30 37h1v1h-1zM33 37h3v1h-3zM39 37h3v1h-3zM43 37h1v1h-1zM45 37h3v1h-3zM50 37h2v1h-2zM5 38h1v1h-1zM7 38h1v1h-1zM9 38h2v1h-2zM12 38h1v1h-1zM18 38h4v1h-4zM24 38h1v1h-1zM31 38h1v1h-1zM38 38h1v1h-1zM40 38h1v1h-1zM42 38h1v1h-1zM46 38h1v1h-1zM48 38h1v1h-1zM50 38h3v1h-3zM4 39h1v1h-1zM6 39h1v1h-1zM9 39h1v1h-1zM12 39h3v1h-3zM16 39h2v1h-2zM19 39h1v1h-1zM24 39h2v1h-2zM30 39h1v1h-1zM32 39h1v1h-1zM34 39h3v1h-3zM39 39h1v1h-1zM44 39h2v1h-2zM47 39h1v1h-1zM51 39h1v1h-1zM4 40h3v1h-3zM8 40h4v1h-4zM13 40h1v1h-1zM16 40h1v1h-1zM21 40h1v1h-1zM26 40h1v1h-1zM28 40h1v1h-1zM30 40h2v1h-2zM33 40h2v1h-2zM37 40h2v1h-2zM40 40h2v1h-2zM43 40h1v1h-1zM45 40h1v1h-1zM48 40h4v1h-4zM4 41h2v1h-2zM8 41h2v1h-2zM12 41h3v1h-3zM18 41h1v1h-1zM20 41h1v1h-1zM24 41h1v1h-1zM26 41h3v1h-3zM30 41h2v1h-2zM34 41h1v1h-1zM36 41h2v1h-2zM39 41h2v1h-2zM44 41h1v1h-1zM47 41h1v1h-1zM51 41h1v1h-1zM5 42h1v1h-1zM9 42h2v1h-2zM18 42h1v1h-1zM21 42h1v1h-1zM25 42h1v1h-1zM29 42h2v1h-2zM33 42h1v1h-1zM38 42h11v1h-11zM52 42h1v1h-1zM5 43h3v1h-3zM11 43h3v1h-3zM16 43h3v1h-3zM21 43h1v1h-1zM23 43h1v1h-1zM25 43h2v1h-2zM28 43h1v1h-1zM31 43h3v1h-3zM36 43h1v1h-1zM38 43h1v1h-1zM41 43h2v1h-2zM45 43h1v1h-1zM49 43h1v1h-1zM51 43h2v1h-2zM4 44h3v1h-3zM10 44h1v1h-1zM13 44h5v1h-5zM20 44h1v1h-1zM22 44h9v1h-9zM35 44h1v1h-1zM37 44h4v1h-4zM42 44h7v1h-7zM50 44h3v1h-3zM12 45h2v1h-2zM16 45h1v1h-1zM18 45h4v1h-4zM23 45h2v1h-2zM26 45h1v1h-1zM30 45h1v1h-1zM33 45h1v1h-1zM35 45h2v1h-2zM38 45h5v1h-5zM44 45h1v1h-1zM48 45h1v1h-1zM4 46h7v1h-7zM12 46h1v1h-1zM15 46h3v1h-3zM19 46h2v1h-2zM25 46h2v1h-2zM28 46h1v1h-1zM30 46h3v1h-3zM34 46h1v1h-1zM37 46h1v1h-1zM40 46h1v1h-1zM44 46h1v1h-1zM46 46h1v1h-1zM48 46h2v1h-2zM52 46h1v1h-1zM4 47h1v1h-1zM10 47h1v1h-1zM12 47h2v1h-2zM15 47h1v1h-1zM17 47h6v1h-6zM25 47h2v1h-2zM30 47h4v1h-4zM35 47h2v1h-2zM38 47h2v1h-2zM41 47h4v1h-4zM48 47h1v1h-1zM51 47h2v1h-2zM4 48h1v1h-1zM6 48h3v1h-3zM10 48h1v1h-1zM12 48h2v1h-2zM15 48h1v1h-1zM17 48h1v1h-1zM19 48h1v1h-1zM22 48h1v1h-1zM25 48h7v1h-7zM33 48h2v1h-2zM37 48h2v1h-2zM40 48h9v1h-9zM50 48h1v1h-1zM52 48h1v1h-1zM4 49h1v1h-1zM6 49h3v1h-3zM10 49h1v1h-1zM12 49h1v1h-1zM14 49h1v1h-1zM17 49h1v1h-1zM19 49h1v1h-1zM22 49h2v1h-2zM25 49h3v1h-3zM29 49h2v1h-2zM33 49h3v1h-3zM40 49h2v1h-2zM44 49h1v1h-1zM47 49h2v1h-2zM50 49h1v1h-1zM4 50h1v1h-1zM6 50h3v1h-3zM10 50h1v1h-1zM12 50h1v1h-1zM14 50h1v1h-1zM16 50h1v1h-1zM18 50h2v1h-2zM23 50h1v1h-1zM27 50h6v1h-6zM37 50h2v1h-2zM41 50h3v1h-3zM45 50h2v1h-2zM50 50h3v1h-3zM4 51h1v1h-1zM10 51h1v1h-1zM12 51h1v1h-1zM15 51h2v1h-2zM18 51h5v1h-5zM25 51h1v1h-1zM27 51h4v1h-4zM32 51h1v1h-1zM34 51h1v1h-1zM36 51h1v1h-1zM39 51h1v1h-1zM41 51h1v1h-1zM44 51h3v1h-3zM48 51h1v1h-1zM52 51h1v1h-1zM4 52h7v1h-7zM13 52h1v1h-1zM17 52h2v1h-2zM20 52h1v1h-1zM23 52h3v1h-3zM27 52h2v1h-2zM31 52h1v1h-1zM33 52h3v1h-3zM39 52h3v1h-3zM47 52h1v1h-1zM49 52h4v1h-4z"/>
</svg>