<svg xmlns="http://www.w3.org/2000/svg" viewBox="0 0 45 45" shape-rendering="crispEdges" width="900" height="900">
<rect x="0" y="0" width="45" height="45" fill="#FFF"/>
<path fill="#000" d="M4 4h7v1h-7zM13 4h2v1h-2zM16 4h1v1h-1zM18 4h1v1h-1zM24 4h1v1h-1zM29 4h2v1h-2zM32 4h1v1h-1zM34 4h7v1h-7zM4 5h1v1h-1zM10 5h1v1h-1zM13 5h2v1h-2zM20 5h3v1h-3zM25 5h1v1h-1zM27 5h2v1h-2zM32 5h1v1h-1zM34 5h1v1h-1zM40 5h1v1h-1zM4 6h1v1h-1zM6 6h3v1h-3zM10 6h1v1h-1zM12 6h1v1h-1zM14 6h4v1h-4zM20 6h3v1h-3zM25 6h1v1h-1zM28 6h1v1h-1zM31 6h2v1h-2zM34 6h1v1h-1zM36 6h3v1h-3zM40 6h1v1h-1zM4 7h1v1h-1zM6 7h3v1h-3zM10 7h1v1h-1zM13 7h1v1h-1zM16 7h1v1h-1zM18 7h2v1h-2zM22 7h2v1h-2zM28 7h3v1h-3zM32 7h1v1h-1zM34 7h1v1h-1zM36 7h3v1h-3zM40 7h1v1h-1zM4 8h1v1h-1zM6 8h3v1h-3zM10 8h1v1h-1zM12 8h2v1h-2zM16 8h2v1h-2zM20 8h2v1h-2zM23 8h5v1h-5zM30 8h3v1h-3zM34 8h1v1h-1zM36 8h3v1h-3zM40 8h1v1h-1zM4 9h1v1h-1zM10 9h1v1h-1zM12 9h2v1h-2zM16 9h1v1h-1zM21 9h1v1h-1zM24 9h3v1h-3zM34 9h1v1h-1zM40 9h1v1h-1zM4 10h7v1h-7zM12 10h1v1h-1zM14 10h1v1h-1zM16 10h1v1h-1zM18 10h1v1h-1zM20 10h1v1h-1zM22 10h1v1h-1zM24 10h1v1h-1zM26 10h1v1h-1zM28 10h1v1h-1zM30 10h1v1h-1zM32 10h1v1h-1zM34 10h7v1h-7zM14 11h1v1h-1zM17 11h2v1h-2zM20 11h6v1h-6zM29 11h1v1h-1zM32 11h1v1h-1zM5 12h1v1h-1zM8 12h1v1h-1zM10 12h1v1h-1zM12 12h1v1h-1zM15 12h1v1h-1zM17 12h1v1h-1zM19 12h8v1h-8zM28 12h2v1h-2zM31 12h3v1h-3zM35 12h2v1h-2zM38 12h1v1h-1zM5 13h1v1h-1zM8 13h1v1h-1zM12 13h2v1h-2zM16 13h2v1h-2zM20 13h1v1h-1zM22 13h2v1h-2zM26 13h2v1h-2zM30 13h1v1h-1zM34 13h1v1h-1zM37 13h1v1h-1zM39 13h2v1h-2zM5 14h1v1h-1zM7 14h10v1h-10zM19 14h2v1h-2zM22 14h2v1h-2zM26 14h6v1h-6zM33 14h2v1h-2zM36 14h3v1h-3zM4 15h1v1h-1zM6 15h1v1h-1zM11 15h2v1h-2zM18 15h1v1h-1zM25 15h1v1h-1zM28 15h1v1h-1zM31 15h2v1h-2zM35 15h4v1h-4zM40 15h1v1h-1zM4 16h1v1h-1zM6 16h1v1h-1zM10 16h1v1h-1zM12 16h2v1h-2zM16 16h2v1h-2zM19 16h1v1h-1zM23 16h4v1h-4zM34 16h1v1h-1zM37 16h2v1h-2zM4 17h2v1h-2zM7 17h1v1h-1zM9 17h1v1h-1zM12 17h1v1h-1zM15 17h1v1h-1zM18 17h1v1h-1zM21 17h1v1h-1zM26 17h2v1h-2zM30 17h4v1h-4zM36 17h2v1h-2zM39 17h1v1h-1zM4 18h1v1h-1zM6 18h5v1h-5zM15 18h2v1h-2zM18 18h3v1h-3zM22 18h1v1h-1zM25 18h7v1h-7zM35 18h1v1h-1zM39 18h1v1h-1zM4 19h2v1h-2zM7 19h1v1h-1zM9 19h1v1h-1zM11 19h1v1h-1zM15 19h1v1h-1zM18 19h2v1h-2zM23 19h3v1h-3zM27 19h1v1h-1zM31 19h2v1h-2zM34 19h3v1h-3zM38 19h1v1h-1zM40 19h1v1h-1zM4 20h1v1h-1zM7 20h2v1h-2zM10 20h1v1h-1zM12 20h1v1h-1zM14 20h1v1h-1zM19 20h1v1h-1zM23 20h2v1h-2zM31 20h1v1h-1zM33 20h2v1h-2zM36 20h1v1h-1zM40 20h1v1h-1zM8 21h2v1h-2zM12 21h2v1h-2zM15 21h1v1h-1zM18 21h2v1h-2zM24 21h1v1h-1zM26 21h1v1h-1zM28 21h1v1h-1zM30 21h3v1h-3zM36 21h1v1h-1zM38 21h3v1h-3zM5 22h3v1h-3zM9 22h3v1h-3zM13 22h4v1h-4zM18 22h3v1h-3zM23 22h1v1h-1zM26 22h3v1h-3zM31 22h5v1h-5zM37 22h1v1h-1zM4 23h2v1h-2zM7 23h1v1h-1zM11 23h1v1h-1zM13 23h2v1h-2zM18 23h2v1h-2zM21 23h1v1h-1zM23 23h1v1h-1zM25 23h1v1h-1zM27 23h1v1h-1zM30 23h1v1h-1zM36 23h1v1h-1zM38 23h2v1h-2zM4 24h1v1h-1zM8 24h1v1h-1zM10 24h1v1h-1zM12 24h3v1h-3zM17 24h1v1h-1zM20 24h2v1h-2zM25 24h1v1h-1zM29 24h1v1h-1zM32 24h5v1h-5zM40 24h1v1h-1zM9 25h1v1h-1zM11 25h1v1h-1zM13 25h5v1h-5zM19 25h1v1h-1zM21 25h3v1h-3zM26 25h2v1h-2zM29 25h1v1h-1zM31 25h1v1h-1zM33 25h2v1h-2zM36 25h1v1h-1zM4 26h2v1h-2zM9 26h3v1h-3zM13 26h3v1h-3zM17 26h1v1h-1zM19 26h1v1h-1zM26 26h3v1h-3zM31 26h3v1h-3zM36 26h3v1h-3zM6 27h1v1h-1zM8 27h2v1h-2zM12 27h1v1h-1zM14 27h1v1h-1zM16 27h1v1h-1zM18 27h1v1h-1zM21 27h2v1h-2zM24 27h4v1h-4zM30 27h2v1h-2zM35 27h1v1h-1zM37 27h4v1h-4zM6 28h2v1h-2zM10 28h7v1h-7zM19 28h2v1h-2zM24 28h3v1h-3zM29 28h2v1h-2zM34 28h5v1h-5zM40 28h1v1h-1zM4 29h2v1h-2zM7 29h2v1h-2zM12 29h1v1h-1zM14 29h1v1h-1zM17 29h2v1h-2zM20 29h2v1h-2zM27 29h1v1h-1zM32 29h5v1h-5zM38 29h2v1h-2zM6 30h1v1h-1zM9 30h2v1h-2zM14 30h1v1h-1zM17 30h3v1h-3zM21 30h4v1h-4zM27 30h1v1h-1zM29 30h2v1h-2zM32 30h5v1h-5zM39 30h1v1h-1zM7 31h1v1h-1zM9 31h1v1h-1zM11 31h2v1h-2zM14 31h3v1h-3zM20 31h1v1h-1zM23 31h1v1h-1zM25 31h1v1h-1zM27 31h2v1h-2zM30 31h1v1h-1zM33 31h2v1h-2zM36 31h3v1h-3zM40 31h1v1h-1zM4 32h3v1h-3zM8 32h4v1h-4zM15 32h1v1h-1zM18 32h1v1h-1zM20 32h1v1h-1zM23 32h4v1h-4zM28 32h1v1h-1zM31 32h8v1h-8zM12 33h2v1h-2zM20 33h1v1h-1zM23 33h3v1h-3zM27 33h1v1h-1zM29 33h1v1h-1zM32 33h1v1h-1zM36 33h1v1h-1zM38 33h3v1h-3zM4 34h7v1h-7zM13 34h3v1h-3zM17 34h1v1h-1zM19 34h1v1h-1zM21 34h1v1h-1zM23 34h1v1h-1zM27 34h1v1h-1zM30 34h1v1h-1zM32 34h1v1h-1zM34 34h1v1h-1zM36 34h1v1h-1zM38 34h1v1h-1zM4 35h1v1h-1zM10 35h1v1h-1zM16 35h1v1h-1zM19 35h1v1h-1zM23 35h1v1h-1zM26 35h2v1h-2zM30 35h1v1h-1zM32 35h1v1h-1zM36 35h1v1h-1zM38 35h1v1h-1zM40 35h1v1h-1zM4 36h1v1h-1zM6 36h3v1h-3zM10 36h1v1h-1zM12 36h2v1h-2zM16 36h1v1h-1zM18 36h2v1h-2zM21 36h1v1h-1zM26 36h1v1h-1zM28 36h1v1h-1zM32 36h5v1h-5zM4 37h1v1h-1zM6 37h3v1h-3zM10 37h1v1h-1zM18 37h1v1h-1zM20 37h1v1h-1zM23 37h3v1h-3zM29 37h1v1h-1zM31 37h9v1h-9zM4 38h1v1h-1zM6 38h3v1h-3zM10 38h1v1h-1zM13 38h1v1h-1zM15 38h2v1h-2zM19 38h3v1h-3zM24 38h1v1h-1zM32 38h1v1h-1zM35 38h1v1h-1zM38 38h2v1h-2zM4 39h1v1h-1zM10 39h1v1h-1zM12 39h1v1h-1zM14 39h2v1h-2zM17 39h4v1h-4zM22 39h1v1h-1zM25 39h1v1h-1zM28 39h1v1h-1zM31 39h1v1h-1zM33 39h2v1h-2zM36 39h1v1h-1zM38 39h2v1h-2zM4 40h7v1h-7zM14 40h1v1h-1zM16 40h5v1h-5zM22 40h2v1h-2zM25 40h4v1h-4zM31 40h1v1h-1zM33 40h3v1h-3zM37 40h4v1h-4z"/>
</svg>